<?xml version="1.0" standalone="no"?>
<!DOCTYPE svg PUBLIC "-//W3C//DTD SVG 20010904//EN"
 "http://www.w3.org/TR/2001/REC-SVG-20010904/DTD/svg10.dtd">
<svg version="1.0" xmlns="http://www.w3.org/2000/svg"
 width="558.000000pt" height="369.000000pt" viewBox="0 0 558.000000 369.000000"
 preserveAspectRatio="xMidYMid meet">
<metadata>
Created by potrace 1.16, written by Peter Selinger 2001-2019
</metadata>
<g transform="translate(0.000000,369.000000) scale(0.100000,-0.100000)"
fill="#000000" stroke="none">
<path d="M2415 3313 c-44 -2 -84 -8 -88 -12 -9 -9 2 -120 23 -261 15 -99 41
-314 49 -414 5 -57 13 -91 22 -98 18 -12 158 -3 172 11 7 7 14 101 19 241 4
126 12 293 17 371 5 78 7 148 4 155 -5 14 -25 15 -218 7z"/>
<path d="M3154 3286 c-6 -26 14 -754 21 -766 8 -13 165 -34 176 -23 9 9 14 34
43 233 9 58 25 164 36 235 34 225 42 294 37 308 -8 20 -106 37 -213 37 -90 0
-94 -1 -100 -24z"/>
<path d="M2765 3220 c-9 -14 -5 -113 11 -285 8 -82 17 -197 20 -255 4 -58 10
-112 15 -121 9 -18 146 -36 160 -22 5 5 13 76 18 158 6 83 17 208 26 280 8 71
15 155 15 186 0 56 0 56 -37 63 -60 9 -221 7 -228 -4z"/>
<path d="M1552 3121 c-67 -33 -122 -66 -122 -73 0 -7 23 -53 51 -103 29 -49
62 -108 74 -130 104 -185 248 -432 259 -443 11 -11 26 -9 90 14 42 15 79 31
82 35 3 5 -6 39 -20 76 -14 38 -66 178 -116 313 -51 135 -101 272 -113 305
-16 44 -28 61 -42 63 -11 2 -76 -24 -143 -57z"/>
<path d="M2100 3160 c-14 -5 -60 -16 -102 -25 -71 -15 -78 -19 -78 -40 0 -13
4 -34 9 -47 5 -13 13 -39 19 -58 90 -303 156 -517 163 -524 11 -13 128 9 146
27 11 11 11 29 3 93 -6 43 -19 142 -30 219 -10 77 -24 183 -30 235 -6 52 -14
103 -16 113 -6 18 -41 22 -84 7z"/>
<path d="M3605 3140 c-3 -5 -15 -69 -26 -142 -11 -73 -27 -176 -35 -228 -44
-281 -46 -302 -32 -315 20 -18 128 -49 137 -39 5 5 50 137 101 294 52 157 100
300 108 318 24 58 26 56 -156 102 -96 23 -89 23 -97 10z"/>
<path d="M4073 3138 c-5 -7 -33 -74 -63 -148 -53 -134 -124 -313 -160 -400
-64 -156 -81 -204 -76 -216 3 -8 18 -19 33 -25 16 -6 41 -17 57 -25 63 -31 59
-36 250 279 98 160 191 312 207 336 16 25 29 53 29 63 0 13 -35 35 -130 83
-71 36 -131 65 -134 65 -2 0 -8 -6 -13 -12z"/>
<path d="M1240 2815 c-41 -30 -85 -61 -97 -70 -13 -9 -23 -20 -23 -25 0 -5 34
-48 76 -97 42 -48 86 -99 98 -113 12 -14 43 -51 68 -82 127 -155 174 -208 186
-208 19 0 131 63 136 76 2 6 -71 138 -162 292 -131 220 -171 281 -187 281 -11
0 -54 -25 -95 -54z"/>
<path d="M4373 2748 c-14 -24 -56 -90 -91 -148 -65 -106 -91 -147 -175 -277
-26 -40 -47 -79 -47 -86 0 -8 28 -33 61 -55 73 -49 73 -49 157 45 32 38 109
124 170 193 60 69 124 138 141 154 17 17 31 37 31 45 0 16 -190 171 -209 171
-6 0 -23 -19 -38 -42z"/>
<path d="M801 2580 c-75 -80 -100 -113 -94 -124 11 -19 568 -436 583 -436 17
0 140 113 140 128 0 7 -110 129 -245 272 -210 221 -261 270 -279 270 -2 0 -49
-49 -105 -110z"/>
<path d="M4577 2370 c-158 -160 -277 -287 -277 -298 0 -25 101 -122 127 -122
12 0 25 5 28 10 4 6 22 21 40 33 19 12 111 78 206 147 95 69 183 132 195 140
138 95 174 123 174 137 0 24 -184 233 -205 233 -6 0 -136 -126 -288 -280z"/>
<path d="M602 2228 c-22 -28 -113 -221 -110 -235 4 -17 570 -245 590 -238 18
7 88 118 88 138 0 9 -15 24 -32 33 -18 9 -55 32 -83 49 -27 18 -111 70 -185
115 -74 46 -158 98 -187 117 -57 36 -66 39 -81 21z"/>
<path d="M4790 2005 c-151 -84 -276 -157 -277 -162 -4 -10 71 -128 86 -138 8
-4 99 24 146 45 11 4 65 25 120 45 55 20 116 43 135 50 19 8 71 27 115 43 46
17 81 37 83 45 5 25 -100 227 -118 226 -8 0 -139 -69 -290 -154z"/>
<path d="M2477 1740 c-170 -43 -396 -220 -471 -371 -32 -64 -36 -80 -36 -150
0 -73 2 -81 30 -112 29 -34 91 -59 135 -54 11 1 22 -2 25 -8 3 -6 -15 -11 -45
-12 -142 -4 -295 -40 -295 -68 0 -19 40 -19 122 -1 103 24 470 65 713 81 323
21 423 25 661 25 272 0 272 0 276 -81 3 -78 4 -82 39 -114 24 -22 54 -37 88
-44 72 -15 295 -14 356 3 222 59 365 245 365 475 0 81 -16 127 -53 155 -93 70
-337 94 -487 47 -129 -40 -193 -81 -174 -112 9 -15 26 -11 104 27 160 76 317
84 460 23 62 -27 74 -57 68 -178 -3 -70 -10 -99 -33 -147 -44 -91 -90 -149
-155 -192 -85 -57 -162 -75 -301 -70 -130 4 -165 17 -194 71 -16 31 -17 42 -8
84 24 102 2 107 -402 100 -389 -8 -787 -33 -966 -62 -46 -7 -86 -11 -88 -9 -8
8 13 21 54 34 52 17 74 31 167 107 43 35 80 63 83 63 3 0 5 -8 5 -18 0 -61 89
-52 163 16 28 27 30 25 27 -19 -2 -35 24 -44 60 -22 26 15 31 15 47 2 12 -10
36 -15 71 -13 43 1 60 8 98 38 51 39 79 39 43 0 -16 -18 -20 -27 -12 -35 17
-17 46 -2 76 41 17 24 36 40 48 40 22 0 19 -11 -14 -47 -18 -20 -17 -43 3 -43
5 0 32 23 60 50 51 52 60 55 35 10 -30 -53 -5 -85 43 -54 21 14 28 14 49 3 19
-10 31 -10 55 -1 24 9 33 8 45 -3 18 -19 35 -19 79 0 31 13 38 13 50 0 35 -34
195 15 202 63 4 29 -9 28 -48 -4 -48 -41 -50 -17 -2 26 44 39 57 85 28 96 -21
8 -96 -28 -136 -66 -43 -41 -105 -80 -125 -80 -40 0 16 76 60 82 39 4 55 32
32 55 -16 17 -19 17 -50 0 -19 -10 -50 -41 -71 -68 -35 -47 -66 -64 -66 -36 0
7 16 32 35 54 39 46 44 63 17 63 -20 0 -62 -39 -62 -57 0 -15 -55 -73 -69 -73
-18 0 -13 19 14 54 14 18 25 40 25 48 0 24 -30 30 -57 12 -18 -11 -28 -13 -36
-5 -20 20 -48 11 -82 -26 -38 -42 -58 -38 -32 6 45 76 6 67 -82 -19 -63 -62
-101 -85 -101 -63 0 4 18 26 41 49 36 36 39 44 30 63 -15 27 -24 26 -87 -3
-32 -15 -59 -36 -72 -58 -23 -36 -67 -66 -79 -54 -5 5 7 20 25 35 37 32 46 77
12 66 -14 -4 -18 -2 -15 7 7 19 -9 40 -26 33 -8 -3 -25 -23 -39 -44 -22 -36
-134 -121 -159 -121 -26 0 -8 30 32 53 82 49 102 99 41 105 -31 3 -58 -16
-111 -81 -14 -16 -33 -27 -48 -27 -20 0 -82 -44 -115 -81 -33 -37 -182 -109
-227 -109 -31 0 -100 40 -111 66 -61 133 106 363 359 493 141 72 245 78 237
14 -2 -22 -16 -36 -63 -64 -39 -24 -60 -43 -60 -55 0 -26 38 -21 94 14 82 50
108 119 63 165 -17 16 -36 22 -84 24 -35 1 -80 -2 -101 -7z m483 -407 c0 -13
-84 -93 -97 -93 -24 0 -13 23 29 62 38 35 68 49 68 31z m740 -7 c0 -2 -23 -27
-52 -55 -35 -34 -55 -48 -62 -41 -13 13 71 100 96 100 10 0 18 -2 18 -4z"/>
<path d="M467 1703 c-4 -3 -7 -37 -7 -74 0 -57 3 -70 19 -79 12 -6 115 -10
265 -10 194 0 247 3 258 14 8 7 23 41 33 76 16 53 17 63 4 71 -16 10 -562 13
-572 2z"/>
<path d="M1686 1675 c-6 -29 -40 -70 -174 -208 -186 -191 -230 -242 -261 -304
-34 -68 -10 -94 62 -67 80 30 176 53 249 60 63 6 77 11 100 36 20 22 32 27 51
23 16 -4 39 1 64 13 48 25 67 47 59 68 -6 15 -8 15 -32 -1 -37 -24 -39 -13 -4
20 35 33 39 70 10 85 -38 20 -120 -25 -165 -91 -22 -31 -26 -45 -21 -74 7 -35
7 -35 -51 -36 -76 0 -190 -21 -230 -42 -38 -20 -43 -21 -43 -4 1 14 181 212
254 278 27 24 78 77 113 118 65 76 80 120 51 149 -19 19 -25 14 -32 -23z m84
-327 c0 -16 -71 -88 -87 -88 -26 0 -12 29 30 64 45 38 57 43 57 24z"/>
<path d="M4620 1627 c0 -7 7 -36 16 -63 28 -86 22 -84 304 -84 201 0 250 3
259 14 7 9 11 40 9 78 -3 63 -3 63 -295 66 -239 2 -293 0 -293 -11z"/>
<path d="M372 1468 c-7 -7 -12 -39 -12 -73 0 -34 5 -66 12 -73 9 -9 90 -12
304 -12 330 0 304 -7 304 85 0 88 11 85 -314 85 -206 0 -285 -3 -294 -12z"/>
<path d="M3440 1462 c-19 -16 -21 -22 -11 -40 13 -24 40 -29 59 -10 35 35 -10
81 -48 50z"/>
<path d="M3028 1447 c-31 -25 -37 -57 -11 -57 9 0 31 12 50 26 27 21 32 29 22
40 -16 19 -29 17 -61 -9z"/>
<path d="M4694 1407 c-10 -6 -14 -26 -14 -67 0 -98 -27 -90 306 -90 294 0 294
0 294 75 0 52 -4 77 -12 80 -23 8 -559 10 -574 2z"/>
<path d="M457 1233 c-4 -3 -7 -42 -7 -85 0 -78 0 -78 253 -76 252 3 252 3 255
77 2 53 -1 77 -10 82 -15 10 -482 12 -491 2z"/>
<path d="M4683 1163 c-7 -15 -9 -73 -4 -131 1 -10 57 -12 264 -10 262 3 262 3
265 64 5 97 13 94 -273 94 -223 0 -245 -2 -252 -17z"/>
<path d="M364 987 c-3 -8 -4 -45 -2 -83 3 -69 3 -69 293 -69 290 0 290 0 296
70 3 39 1 76 -4 83 -14 18 -576 18 -583 -1z"/>
<path d="M4694 927 c-3 -8 -4 -43 -2 -78 3 -64 3 -64 293 -64 290 0 290 0 290
75 0 75 0 75 -288 78 -236 2 -288 0 -293 -11z"/>
<path d="M437 744 c-13 -13 -8 -144 6 -145 13 -1 486 -1 500 0 4 1 7 34 5 74
-3 72 -3 72 -254 75 -138 1 -253 -1 -257 -4z"/>
<path d="M2020 676 c-13 -35 -14 -33 15 -33 21 0 25 3 19 21 -11 36 -23 41
-34 12z"/>
<path d="M2097 676 c-9 -33 -6 -39 17 -30 17 7 22 24 7 24 -5 0 -11 8 -13 18
-3 12 -6 9 -11 -12z"/>
<path d="M2351 663 c-1 -24 1 -43 3 -43 8 0 12 48 5 66 -5 13 -8 7 -8 -23z"/>
<path d="M2505 690 c3 -5 8 -10 11 -10 2 0 4 5 4 10 0 6 -5 10 -11 10 -5 0 -7
-4 -4 -10z"/>
<path d="M2570 674 c-14 -35 -14 -34 20 -34 31 0 31 0 15 30 -19 37 -23 37
-35 4z"/>
<path d="M2737 687 c-7 -18 1 -47 12 -47 3 0 13 5 21 10 11 7 11 10 2 10 -7 0
-16 10 -21 22 -6 18 -9 19 -14 5z"/>
<path d="M2830 676 c-13 -36 -13 -39 4 -33 7 3 19 0 26 -6 10 -10 11 -6 6 18
-11 45 -24 52 -36 21z"/>
<path d="M2910 686 c0 -9 5 -16 10 -16 6 0 10 4 10 9 0 6 -4 13 -10 16 -5 3
-10 -1 -10 -9z"/>
<path d="M3015 690 c3 -5 8 -10 11 -10 2 0 4 5 4 10 0 6 -5 10 -11 10 -5 0 -7
-4 -4 -10z"/>
<path d="M3527 679 c-3 -12 -2 -31 3 -42 7 -18 9 -14 9 21 1 46 -4 54 -12 21z"/>
<path d="M3730 685 c0 -8 -9 -24 -19 -34 -19 -19 -18 -19 20 -17 43 1 44 3 27
41 -12 28 -28 33 -28 10z"/>
<path d="M4702 688 c-7 -7 -12 -40 -12 -80 0 -62 2 -68 23 -73 12 -3 128 -4
257 -3 235 3 235 3 235 83 0 80 0 80 -245 83 -183 2 -249 -1 -258 -10z"/>
<path d="M3241 661 c-1 -27 2 -32 11 -23 8 8 8 17 0 34 -10 22 -11 21 -11 -11z"/>
<path d="M1920 660 c0 -19 3 -21 12 -12 9 9 9 15 0 24 -9 9 -12 7 -12 -12z"/>
<path d="M1955 670 c-3 -5 -1 -10 4 -10 6 0 11 5 11 10 0 6 -2 10 -4 10 -3 0
-8 -4 -11 -10z"/>
<path d="M2264 666 c-8 -22 1 -30 21 -19 15 9 15 11 1 22 -13 11 -17 10 -22
-3z"/>
<path d="M3594 666 c-8 -22 1 -30 21 -19 15 9 15 11 1 22 -13 11 -17 10 -22
-3z"/>
<path d="M3080 660 c0 -5 5 -10 10 -10 6 0 10 5 10 10 0 6 -4 10 -10 10 -5 0
-10 -4 -10 -10z"/>
<path d="M2952 646 c1 -10 8 -17 13 -17 15 1 12 24 -3 29 -9 3 -13 -2 -10 -12z"/>
</g>
</svg>
